<svg xmlns="http://www.w3.org/2000/svg" viewBox="0 0 32 32" fill="none">
  <rect width="32" height="32" rx="8" fill="#07080C"/>
  <!-- Rocket body -->
  <path d="M16 4C16 4 22 9 22 17H10C10 9 16 4 16 4Z" fill="#C8865A"/>
  <!-- Rocket nose tip -->
  <path d="M16 4L18.5 9H13.5L16 4Z" fill="#DFA070"/>
  <!-- Window -->
  <circle cx="16" cy="13" r="2.2" fill="#07080C" stroke="#DFA070" stroke-width="1"/>
  <!-- Left fin -->
  <path d="M10 17L7 22L10 21V17Z" fill="#8A5538"/>
  <!-- Right fin -->
  <path d="M22 17L25 22L22 21V17Z" fill="#8A5538"/>
  <!-- Exhaust -->
  <path d="M13 21C13 21 13.5 25 16 27C18.5 25 19 21 19 21H13Z" fill="#DFA070" opacity="0.7"/>
  <path d="M14.5 21C14.5 21 15 24 16 25.5C17 24 17.5 21 17.5 21H14.5Z" fill="#fff" opacity="0.4"/>
</svg>
